<svg xmlns="http://www.w3.org/2000/svg" version="1.1" xmlns:xlink="http://www.w3.org/1999/xlink" xmlns:svgjs="http://svgjs.dev/svgjs" width="1440" height="560" preserveAspectRatio="none" viewBox="0 0 1440 560"><g mask="url(&quot;#SvgjsMask1016&quot;)" fill="none"><rect width="1440" height="560" x="0" y="0" fill="rgba(26, 25, 29, 1)"></rect><path d="M-61.72 369.99L-61.72 369.99" stroke="rgba(26, 25, 29, 1)" stroke-width="1.5"></path><path d="M-61.72 369.99L70.2 390.59" stroke="rgba(26, 25, 29, 1)" stroke-width="1.5"></path><path d="M-61.72 369.99L-78.55 504.44" stroke="rgba(26, 25, 29, 1)" stroke-width="1.5"></path><path d="M-61.72 369.99L108.55 534.07" stroke="rgba(26, 25, 29, 1)" stroke-width="1.5"></path><path d="M-61.72 369.99L-38.6 650.84" stroke="rgba(26, 25, 29, 1)" stroke-width="1.5"></path><path d="M-61.72 369.99L220.82 378.11" stroke="rgba(26, 25, 29, 1)" stroke-width="1.5"></path><path d="M-61.72 369.99L206.7 555.13" stroke="rgba(26, 25, 29, 1)" stroke-width="1.5"></path><path d="M-78.55 504.44L-78.55 504.44" stroke="rgba(26, 25, 29, 1)" stroke-width="1.5"></path><path d="M-78.55 504.44L-38.6 650.84" stroke="rgba(26, 25, 29, 1)" stroke-width="1.5"></path><path d="M-78.55 504.44L70.2 390.59" stroke="rgba(26, 25, 29, 1)" stroke-width="1.5"></path><path d="M-78.55 504.44L108.55 534.07" stroke="rgba(26, 25, 29, 1)" stroke-width="1.5"></path><path d="M-78.55 504.44L73.87 697.56" stroke="rgba(26, 25, 29, 1)" stroke-width="1.5"></path><path d="M-38.6 650.84L-38.6 650.84" stroke="rgba(26, 25, 29, 1)" stroke-width="1.5"></path><path d="M-38.6 650.84L73.87 697.56" stroke="rgba(26, 25, 29, 1)" stroke-width="1.5"></path><path d="M-38.6 650.84L108.55 534.07" stroke="rgba(26, 25, 29, 1)" stroke-width="1.5"></path><path d="M70.2 390.59L70.2 390.59" stroke="rgba(26, 25, 29, 1)" stroke-width="1.5"></path><path d="M70.2 390.59L108.55 534.07" stroke="rgba(26, 25, 29, 1)" stroke-width="1.5"></path><path d="M70.2 390.59L220.82 378.11" stroke="rgba(26, 25, 29, 1)" stroke-width="1.5"></path><path d="M108.55 534.07L108.55 534.07" stroke="rgba(26, 25, 29, 1)" stroke-width="1.5"></path><path d="M108.55 534.07L206.7 555.13" stroke="rgba(26, 25, 29, 1)" stroke-width="1.5"></path><path d="M108.55 534.07L73.87 697.56" stroke="rgba(26, 25, 29, 1)" stroke-width="1.5"></path><path d="M108.55 534.07L227.04 668.86" stroke="rgba(26, 25, 29, 1)" stroke-width="1.5"></path><path d="M73.87 697.56L73.87 697.56" stroke="rgba(26, 25, 29, 1)" stroke-width="1.5"></path><path d="M73.87 697.56L227.04 668.86" stroke="rgba(26, 25, 29, 1)" stroke-width="1.5"></path><path d="M73.87 697.56L206.7 555.13" stroke="rgba(26, 25, 29, 1)" stroke-width="1.5"></path><path d="M220.82 378.11L220.82 378.11" stroke="rgba(26, 25, 29, 1)" stroke-width="1.5"></path><path d="M220.82 378.11L361.82 399.21" stroke="rgba(26, 25, 29, 1)" stroke-width="1.5"></path><path d="M220.82 378.11L206.7 555.13" stroke="rgba(26, 25, 29, 1)" stroke-width="1.5"></path><path d="M220.82 378.11L344.28 507.79" stroke="rgba(26, 25, 29, 1)" stroke-width="1.5"></path><path d="M220.82 378.11L108.55 534.07" stroke="rgba(26, 25, 29, 1)" stroke-width="1.5"></path><path d="M220.82 378.11L494.06 342.89" stroke="rgba(26, 25, 29, 1)" stroke-width="1.5"></path><path d="M206.7 555.13L206.7 555.13" stroke="rgba(26, 25, 29, 1)" stroke-width="1.5"></path><path d="M206.7 555.13L227.04 668.86" stroke="rgba(26, 25, 29, 1)" stroke-width="1.5"></path><path d="M206.7 555.13L344.28 507.79" stroke="rgba(26, 25, 29, 1)" stroke-width="1.5"></path><path d="M227.04 668.86L227.04 668.86" stroke="rgba(26, 25, 29, 1)" stroke-width="1.5"></path><path d="M227.04 668.86L354.94 645.43" stroke="rgba(26, 25, 29, 1)" stroke-width="1.5"></path><path d="M361.82 399.21L361.82 399.21" stroke="rgba(26, 25, 29, 1)" stroke-width="1.5"></path><path d="M361.82 399.21L344.28 507.79" stroke="rgba(26, 25, 29, 1)" stroke-width="1.5"></path><path d="M361.82 399.21L494.06 342.89" stroke="rgba(26, 25, 29, 1)" stroke-width="1.5"></path><path d="M361.82 399.21L206.7 555.13" stroke="rgba(26, 25, 29, 1)" stroke-width="1.5"></path><path d="M361.82 399.21L553.18 514.97" stroke="rgba(26, 25, 29, 1)" stroke-width="1.5"></path><path d="M344.28 507.79L344.28 507.79" stroke="rgba(26, 25, 29, 1)" stroke-width="1.5"></path><path d="M354.94 645.43L354.94 645.43" stroke="rgba(26, 25, 29, 1)" stroke-width="1.5"></path><path d="M354.94 645.43L344.28 507.79" stroke="rgba(26, 25, 29, 1)" stroke-width="1.5"></path><path d="M354.94 645.43L495.76 654.6" stroke="rgba(26, 25, 29, 1)" stroke-width="1.5"></path><path d="M354.94 645.43L206.7 555.13" stroke="rgba(26, 25, 29, 1)" stroke-width="1.5"></path><path d="M354.94 645.43L553.18 514.97" stroke="rgba(26, 25, 29, 1)" stroke-width="1.5"></path><path d="M494.06 342.89L494.06 342.89" stroke="rgba(26, 25, 29, 1)" stroke-width="1.5"></path><path d="M494.06 342.89L553.18 514.97" stroke="rgba(26, 25, 29, 1)" stroke-width="1.5"></path><path d="M494.06 342.89L706.28 389.6" stroke="rgba(26, 25, 29, 1)" stroke-width="1.5"></path><path d="M494.06 342.89L344.28 507.79" stroke="rgba(26, 25, 29, 1)" stroke-width="1.5"></path><path d="M494.06 342.89L641.72 548.46" stroke="rgba(26, 25, 29, 1)" stroke-width="1.5"></path><path d="M553.18 514.97L553.18 514.97" stroke="rgba(26, 25, 29, 1)" stroke-width="1.5"></path><path d="M553.18 514.97L641.72 548.46" stroke="rgba(26, 25, 29, 1)" stroke-width="1.5"></path><path d="M553.18 514.97L495.76 654.6" stroke="rgba(26, 25, 29, 1)" stroke-width="1.5"></path><path d="M495.76 654.6L495.76 654.6" stroke="rgba(26, 25, 29, 1)" stroke-width="1.5"></path><path d="M495.76 654.6L641.72 548.46" stroke="rgba(26, 25, 29, 1)" stroke-width="1.5"></path><path d="M495.76 654.6L687.76 661.28" stroke="rgba(26, 25, 29, 1)" stroke-width="1.5"></path><path d="M706.28 389.6L706.28 389.6" stroke="rgba(26, 25, 29, 1)" stroke-width="1.5"></path><path d="M706.28 389.6L848.61 365.24" stroke="rgba(26, 25, 29, 1)" stroke-width="1.5"></path><path d="M706.28 389.6L819.09 514.41" stroke="rgba(26, 25, 29, 1)" stroke-width="1.5"></path><path d="M706.28 389.6L641.72 548.46" stroke="rgba(26, 25, 29, 1)" stroke-width="1.5"></path><path d="M706.28 389.6L816.19 256.06" stroke="rgba(26, 25, 29, 1)" stroke-width="1.5"></path><path d="M641.72 548.46L641.72 548.46" stroke="rgba(26, 25, 29, 1)" stroke-width="1.5"></path><path d="M641.72 548.46L687.76 661.28" stroke="rgba(26, 25, 29, 1)" stroke-width="1.5"></path><path d="M641.72 548.46L819.09 514.41" stroke="rgba(26, 25, 29, 1)" stroke-width="1.5"></path><path d="M687.76 661.28L687.76 661.28" stroke="rgba(26, 25, 29, 1)" stroke-width="1.5"></path><path d="M687.76 661.28L861.1 652.91" stroke="rgba(26, 25, 29, 1)" stroke-width="1.5"></path><path d="M687.76 661.28L819.09 514.41" stroke="rgba(26, 25, 29, 1)" stroke-width="1.5"></path><path d="M687.76 661.28L553.18 514.97" stroke="rgba(26, 25, 29, 1)" stroke-width="1.5"></path><path d="M687.76 661.28L706.28 389.6" stroke="rgba(26, 25, 29, 1)" stroke-width="1.5"></path><path d="M816.19 256.06L816.19 256.06" stroke="rgba(26, 25, 29, 1)" stroke-width="1.5"></path><path d="M816.19 256.06L848.61 365.24" stroke="rgba(26, 25, 29, 1)" stroke-width="1.5"></path><path d="M816.19 256.06L942.19 200.51" stroke="rgba(26, 25, 29, 1)" stroke-width="1.5"></path><path d="M816.19 256.06L961.57 399.22" stroke="rgba(26, 25, 29, 1)" stroke-width="1.5"></path><path d="M848.61 365.24L848.61 365.24" stroke="rgba(26, 25, 29, 1)" stroke-width="1.5"></path><path d="M848.61 365.24L961.57 399.22" stroke="rgba(26, 25, 29, 1)" stroke-width="1.5"></path><path d="M819.09 514.41L819.09 514.41" stroke="rgba(26, 25, 29, 1)" stroke-width="1.5"></path><path d="M819.09 514.41L861.1 652.91" stroke="rgba(26, 25, 29, 1)" stroke-width="1.5"></path><path d="M819.09 514.41L848.61 365.24" stroke="rgba(26, 25, 29, 1)" stroke-width="1.5"></path><path d="M861.1 652.91L861.1 652.91" stroke="rgba(26, 25, 29, 1)" stroke-width="1.5"></path><path d="M861.1 652.91L961.81 670.48" stroke="rgba(26, 25, 29, 1)" stroke-width="1.5"></path><path d="M861.1 652.91L1000.26 512.94" stroke="rgba(26, 25, 29, 1)" stroke-width="1.5"></path><path d="M861.1 652.91L641.72 548.46" stroke="rgba(26, 25, 29, 1)" stroke-width="1.5"></path><path d="M941.9 -51.94L941.9 -51.94" stroke="rgba(26, 25, 29, 1)" stroke-width="1.5"></path><path d="M941.9 -51.94L954.35 59.7" stroke="rgba(26, 25, 29, 1)" stroke-width="1.5"></path><path d="M941.9 -51.94L1118.41 56.64" stroke="rgba(26, 25, 29, 1)" stroke-width="1.5"></path><path d="M954.35 59.7L954.35 59.7" stroke="rgba(26, 25, 29, 1)" stroke-width="1.5"></path><path d="M954.35 59.7L942.19 200.51" stroke="rgba(26, 25, 29, 1)" stroke-width="1.5"></path><path d="M942.19 200.51L942.19 200.51" stroke="rgba(26, 25, 29, 1)" stroke-width="1.5"></path><path d="M961.57 399.22L961.57 399.22" stroke="rgba(26, 25, 29, 1)" stroke-width="1.5"></path><path d="M961.57 399.22L1000.26 512.94" stroke="rgba(26, 25, 29, 1)" stroke-width="1.5"></path><path d="M1000.26 512.94L1000.26 512.94" stroke="rgba(26, 25, 29, 1)" stroke-width="1.5"></path><path d="M1000.26 512.94L1123.09 496.86" stroke="rgba(26, 25, 29, 1)" stroke-width="1.5"></path><path d="M1000.26 512.94L1115.14 404.41" stroke="rgba(26, 25, 29, 1)" stroke-width="1.5"></path><path d="M1000.26 512.94L961.81 670.48" stroke="rgba(26, 25, 29, 1)" stroke-width="1.5"></path><path d="M1000.26 512.94L819.09 514.41" stroke="rgba(26, 25, 29, 1)" stroke-width="1.5"></path><path d="M961.81 670.48L961.81 670.48" stroke="rgba(26, 25, 29, 1)" stroke-width="1.5"></path><path d="M961.81 670.48L1135.77 712.44" stroke="rgba(26, 25, 29, 1)" stroke-width="1.5"></path><path d="M961.81 670.48L819.09 514.41" stroke="rgba(26, 25, 29, 1)" stroke-width="1.5"></path><path d="M961.81 670.48L1123.09 496.86" stroke="rgba(26, 25, 29, 1)" stroke-width="1.5"></path><path d="M961.81 670.48L961.57 399.22" stroke="rgba(26, 25, 29, 1)" stroke-width="1.5"></path><path d="M1118.41 56.64L1118.41 56.64" stroke="rgba(26, 25, 29, 1)" stroke-width="1.5"></path><path d="M1118.41 56.64L1256.62 99.25" stroke="rgba(26, 25, 29, 1)" stroke-width="1.5"></path><path d="M1118.41 56.64L954.35 59.7" stroke="rgba(26, 25, 29, 1)" stroke-width="1.5"></path><path d="M1118.41 56.64L1129.38 225.91" stroke="rgba(26, 25, 29, 1)" stroke-width="1.5"></path><path d="M1129.38 225.91L1129.38 225.91" stroke="rgba(26, 25, 29, 1)" stroke-width="1.5"></path><path d="M1129.38 225.91L1293.42 189.99" stroke="rgba(26, 25, 29, 1)" stroke-width="1.5"></path><path d="M1115.14 404.41L1115.14 404.41" stroke="rgba(26, 25, 29, 1)" stroke-width="1.5"></path><path d="M1115.14 404.41L1123.09 496.86" stroke="rgba(26, 25, 29, 1)" stroke-width="1.5"></path><path d="M1115.14 404.41L961.57 399.22" stroke="rgba(26, 25, 29, 1)" stroke-width="1.5"></path><path d="M1115.14 404.41L1129.38 225.91" stroke="rgba(26, 25, 29, 1)" stroke-width="1.5"></path><path d="M1115.14 404.41L1307.42 353.19" stroke="rgba(26, 25, 29, 1)" stroke-width="1.5"></path><path d="M1123.09 496.86L1123.09 496.86" stroke="rgba(26, 25, 29, 1)" stroke-width="1.5"></path><path d="M1123.09 496.86L1243.69 558.77" stroke="rgba(26, 25, 29, 1)" stroke-width="1.5"></path><path d="M1123.09 496.86L961.57 399.22" stroke="rgba(26, 25, 29, 1)" stroke-width="1.5"></path><path d="M1123.09 496.86L1135.77 712.44" stroke="rgba(26, 25, 29, 1)" stroke-width="1.5"></path><path d="M1123.09 496.86L1276.68 670.39" stroke="rgba(26, 25, 29, 1)" stroke-width="1.5"></path><path d="M1135.77 712.44L1135.77 712.44" stroke="rgba(26, 25, 29, 1)" stroke-width="1.5"></path><path d="M1135.77 712.44L1276.68 670.39" stroke="rgba(26, 25, 29, 1)" stroke-width="1.5"></path><path d="M1135.77 712.44L1243.69 558.77" stroke="rgba(26, 25, 29, 1)" stroke-width="1.5"></path><path d="M1280.86 -104L1280.86 -104" stroke="rgba(26, 25, 29, 1)" stroke-width="1.5"></path><path d="M1280.86 -104L1451.01 -61.51" stroke="rgba(26, 25, 29, 1)" stroke-width="1.5"></path><path d="M1280.86 -104L1256.62 99.25" stroke="rgba(26, 25, 29, 1)" stroke-width="1.5"></path><path d="M1280.86 -104L1118.41 56.64" stroke="rgba(26, 25, 29, 1)" stroke-width="1.5"></path><path d="M1280.86 -104L1389.65 103.05" stroke="rgba(26, 25, 29, 1)" stroke-width="1.5"></path><path d="M1280.86 -104L1542.7 -49.99" stroke="rgba(26, 25, 29, 1)" stroke-width="1.5"></path><path d="M1256.62 99.25L1256.62 99.25" stroke="rgba(26, 25, 29, 1)" stroke-width="1.5"></path><path d="M1256.62 99.25L1293.42 189.99" stroke="rgba(26, 25, 29, 1)" stroke-width="1.5"></path><path d="M1256.62 99.25L1389.65 103.05" stroke="rgba(26, 25, 29, 1)" stroke-width="1.5"></path><path d="M1256.62 99.25L1129.38 225.91" stroke="rgba(26, 25, 29, 1)" stroke-width="1.5"></path><path d="M1256.62 99.25L1390.75 221.83" stroke="rgba(26, 25, 29, 1)" stroke-width="1.5"></path><path d="M1293.42 189.99L1293.42 189.99" stroke="rgba(26, 25, 29, 1)" stroke-width="1.5"></path><path d="M1293.42 189.99L1390.75 221.83" stroke="rgba(26, 25, 29, 1)" stroke-width="1.5"></path><path d="M1293.42 189.99L1389.65 103.05" stroke="rgba(26, 25, 29, 1)" stroke-width="1.5"></path><path d="M1293.42 189.99L1307.42 353.19" stroke="rgba(26, 25, 29, 1)" stroke-width="1.5"></path><path d="M1307.42 353.19L1307.42 353.19" stroke="rgba(26, 25, 29, 1)" stroke-width="1.5"></path><path d="M1307.42 353.19L1427.87 337.96" stroke="rgba(26, 25, 29, 1)" stroke-width="1.5"></path><path d="M1307.42 353.19L1390.75 221.83" stroke="rgba(26, 25, 29, 1)" stroke-width="1.5"></path><path d="M1307.42 353.19L1405.54 520.39" stroke="rgba(26, 25, 29, 1)" stroke-width="1.5"></path><path d="M1243.69 558.77L1243.69 558.77" stroke="rgba(26, 25, 29, 1)" stroke-width="1.5"></path><path d="M1243.69 558.77L1276.68 670.39" stroke="rgba(26, 25, 29, 1)" stroke-width="1.5"></path><path d="M1243.69 558.77L1405.54 520.39" stroke="rgba(26, 25, 29, 1)" stroke-width="1.5"></path><path d="M1243.69 558.77L1115.14 404.41" stroke="rgba(26, 25, 29, 1)" stroke-width="1.5"></path><path d="M1243.69 558.77L1307.42 353.19" stroke="rgba(26, 25, 29, 1)" stroke-width="1.5"></path><path d="M1276.68 670.39L1276.68 670.39" stroke="rgba(26, 25, 29, 1)" stroke-width="1.5"></path><path d="M1276.68 670.39L1405.54 520.39" stroke="rgba(26, 25, 29, 1)" stroke-width="1.5"></path><path d="M1276.68 670.39L1538.66 678.6" stroke="rgba(26, 25, 29, 1)" stroke-width="1.5"></path><path d="M1276.68 670.39L1115.14 404.41" stroke="rgba(26, 25, 29, 1)" stroke-width="1.5"></path><path d="M1451.01 -61.51L1451.01 -61.51" stroke="rgba(26, 25, 29, 1)" stroke-width="1.5"></path><path d="M1451.01 -61.51L1542.7 -49.99" stroke="rgba(26, 25, 29, 1)" stroke-width="1.5"></path><path d="M1451.01 -61.51L1544.05 56.94" stroke="rgba(26, 25, 29, 1)" stroke-width="1.5"></path><path d="M1389.65 103.05L1389.65 103.05" stroke="rgba(26, 25, 29, 1)" stroke-width="1.5"></path><path d="M1389.65 103.05L1390.75 221.83" stroke="rgba(26, 25, 29, 1)" stroke-width="1.5"></path><path d="M1389.65 103.05L1544.05 56.94" stroke="rgba(26, 25, 29, 1)" stroke-width="1.5"></path><path d="M1390.75 221.83L1390.75 221.83" stroke="rgba(26, 25, 29, 1)" stroke-width="1.5"></path><path d="M1427.87 337.96L1427.87 337.96" stroke="rgba(26, 25, 29, 1)" stroke-width="1.5"></path><path d="M1427.87 337.96L1390.75 221.83" stroke="rgba(26, 25, 29, 1)" stroke-width="1.5"></path><path d="M1427.87 337.96L1595.54 363.11" stroke="rgba(26, 25, 29, 1)" stroke-width="1.5"></path><path d="M1427.87 337.96L1405.54 520.39" stroke="rgba(26, 25, 29, 1)" stroke-width="1.5"></path><path d="M1427.87 337.96L1293.42 189.99" stroke="rgba(26, 25, 29, 1)" stroke-width="1.5"></path><path d="M1427.87 337.96L1603.27 220.38" stroke="rgba(26, 25, 29, 1)" stroke-width="1.5"></path><path d="M1405.54 520.39L1405.54 520.39" stroke="rgba(26, 25, 29, 1)" stroke-width="1.5"></path><path d="M1542.7 -49.99L1542.7 -49.99" stroke="rgba(26, 25, 29, 1)" stroke-width="1.5"></path><path d="M1542.7 -49.99L1544.05 56.94" stroke="rgba(26, 25, 29, 1)" stroke-width="1.5"></path><path d="M1542.7 -49.99L1389.65 103.05" stroke="rgba(26, 25, 29, 1)" stroke-width="1.5"></path><path d="M1544.05 56.94L1544.05 56.94" stroke="rgba(26, 25, 29, 1)" stroke-width="1.5"></path><path d="M1544.05 56.94L1603.27 220.38" stroke="rgba(26, 25, 29, 1)" stroke-width="1.5"></path><path d="M1544.05 56.94L1390.75 221.83" stroke="rgba(26, 25, 29, 1)" stroke-width="1.5"></path><path d="M1603.27 220.38L1603.27 220.38" stroke="rgba(26, 25, 29, 1)" stroke-width="1.5"></path><path d="M1603.27 220.38L1595.54 363.11" stroke="rgba(26, 25, 29, 1)" stroke-width="1.5"></path><path d="M1595.54 363.11L1595.54 363.11" stroke="rgba(26, 25, 29, 1)" stroke-width="1.5"></path><path d="M1595.54 363.11L1608.41 521.41" stroke="rgba(26, 25, 29, 1)" stroke-width="1.5"></path><path d="M1608.41 521.41L1608.41 521.41" stroke="rgba(26, 25, 29, 1)" stroke-width="1.5"></path><path d="M1608.41 521.41L1538.66 678.6" stroke="rgba(26, 25, 29, 1)" stroke-width="1.5"></path><path d="M1608.41 521.41L1405.54 520.39" stroke="rgba(26, 25, 29, 1)" stroke-width="1.5"></path><path d="M1608.41 521.41L1427.87 337.96" stroke="rgba(26, 25, 29, 1)" stroke-width="1.5"></path><path d="M1608.41 521.41L1603.27 220.38" stroke="rgba(26, 25, 29, 1)" stroke-width="1.5"></path><path d="M1538.66 678.6L1538.66 678.6" stroke="rgba(26, 25, 29, 1)" stroke-width="1.5"></path><path d="M1538.66 678.6L1405.54 520.39" stroke="rgba(26, 25, 29, 1)" stroke-width="1.5"></path><path d="M1538.66 678.6L1243.69 558.77" stroke="rgba(26, 25, 29, 1)" stroke-width="1.5"></path><path d="M1538.66 678.6L1595.54 363.11" stroke="rgba(26, 25, 29, 1)" stroke-width="1.5"></path><circle r="5" cx="-61.72" cy="369.99" fill="rgba(26, 25, 29, 1)"></circle><circle r="5" cx="-78.55" cy="504.44" fill="rgba(26, 25, 29, 1)"></circle><circle r="5" cx="-38.6" cy="650.84" fill="rgba(26, 25, 29, 1)"></circle><circle r="5" cx="70.2" cy="390.59" fill="rgba(26, 25, 29, 1)"></circle><circle r="5" cx="108.55" cy="534.07" fill="rgba(26, 25, 29, 1)"></circle><circle r="5" cx="73.87" cy="697.56" fill="rgba(26, 25, 29, 1)"></circle><circle r="5" cx="220.82" cy="378.11" fill="rgba(26, 25, 29, 1)"></circle><circle r="5" cx="206.7" cy="555.13" fill="rgba(26, 25, 29, 1)"></circle><circle r="5" cx="227.04" cy="668.86" fill="rgba(26, 25, 29, 1)"></circle><circle r="5" cx="361.82" cy="399.21" fill="rgba(26, 25, 29, 1)"></circle><circle r="5" cx="344.28" cy="507.79" fill="rgba(26, 25, 29, 1)"></circle><circle r="5" cx="354.94" cy="645.43" fill="rgba(26, 25, 29, 1)"></circle><circle r="5" cx="494.06" cy="342.89" fill="rgba(26, 25, 29, 1)"></circle><circle r="5" cx="553.18" cy="514.97" fill="rgba(26, 25, 29, 1)"></circle><circle r="5" cx="495.76" cy="654.6" fill="rgba(26, 25, 29, 1)"></circle><circle r="5" cx="706.28" cy="389.6" fill="rgba(26, 25, 29, 1)"></circle><circle r="5" cx="641.72" cy="548.46" fill="rgba(26, 25, 29, 1)"></circle><circle r="5" cx="687.76" cy="661.28" fill="rgba(26, 25, 29, 1)"></circle><circle r="5" cx="816.19" cy="256.06" fill="rgba(26, 25, 29, 1)"></circle><circle r="5" cx="848.61" cy="365.24" fill="rgba(26, 25, 29, 1)"></circle><circle r="5" cx="819.09" cy="514.41" fill="rgba(26, 25, 29, 1)"></circle><circle r="5" cx="861.1" cy="652.91" fill="rgba(26, 25, 29, 1)"></circle><circle r="5" cx="941.9" cy="-51.94" fill="rgba(26, 25, 29, 1)"></circle><circle r="5" cx="954.35" cy="59.7" fill="rgba(26, 25, 29, 1)"></circle><circle r="5" cx="942.19" cy="200.51" fill="rgba(26, 25, 29, 1)"></circle><circle r="5" cx="961.57" cy="399.22" fill="rgba(26, 25, 29, 1)"></circle><circle r="5" cx="1000.26" cy="512.94" fill="rgba(26, 25, 29, 1)"></circle><circle r="5" cx="961.81" cy="670.48" fill="rgba(26, 25, 29, 1)"></circle><circle r="5" cx="1118.41" cy="56.64" fill="rgba(26, 25, 29, 1)"></circle><circle r="5" cx="1129.38" cy="225.91" fill="rgba(26, 25, 29, 1)"></circle><circle r="5" cx="1115.14" cy="404.41" fill="rgba(26, 25, 29, 1)"></circle><circle r="5" cx="1123.09" cy="496.86" fill="rgba(26, 25, 29, 1)"></circle><circle r="5" cx="1135.77" cy="712.44" fill="rgba(26, 25, 29, 1)"></circle><circle r="5" cx="1280.86" cy="-104" fill="rgba(26, 25, 29, 1)"></circle><circle r="5" cx="1256.62" cy="99.25" fill="rgba(26, 25, 29, 1)"></circle><circle r="5" cx="1293.42" cy="189.99" fill="rgba(26, 25, 29, 1)"></circle><circle r="5" cx="1307.42" cy="353.19" fill="rgba(26, 25, 29, 1)"></circle><circle r="5" cx="1243.69" cy="558.77" fill="rgba(26, 25, 29, 1)"></circle><circle r="5" cx="1276.68" cy="670.39" fill="rgba(26, 25, 29, 1)"></circle><circle r="5" cx="1451.01" cy="-61.51" fill="rgba(26, 25, 29, 1)"></circle><circle r="5" cx="1389.65" cy="103.05" fill="rgba(26, 25, 29, 1)"></circle><circle r="5" cx="1390.75" cy="221.83" fill="rgba(26, 25, 29, 1)"></circle><circle r="5" cx="1427.87" cy="337.96" fill="rgba(26, 25, 29, 1)"></circle><circle r="5" cx="1405.54" cy="520.39" fill="rgba(26, 25, 29, 1)"></circle><circle r="5" cx="1542.7" cy="-49.99" fill="rgba(26, 25, 29, 1)"></circle><circle r="5" cx="1544.05" cy="56.94" fill="rgba(26, 25, 29, 1)"></circle><circle r="5" cx="1603.27" cy="220.38" fill="rgba(26, 25, 29, 1)"></circle><circle r="5" cx="1595.54" cy="363.11" fill="rgba(26, 25, 29, 1)"></circle><circle r="5" cx="1608.41" cy="521.41" fill="rgba(26, 25, 29, 1)"></circle><circle r="5" cx="1538.66" cy="678.6" fill="rgba(26, 25, 29, 1)"></circle><path d="M61.03 652.99L61.03 652.99" stroke="hsl(255, 6.5%, 15.8%)" stroke-width="1.5"></path><path d="M61.03 652.99L-61.23 696.87" stroke="hsl(255, 6.5%, 15.8%)" stroke-width="1.5"></path><path d="M61.03 652.99L191.28 665.67" stroke="hsl(255, 6.5%, 15.8%)" stroke-width="1.5"></path><path d="M191.28 665.67L191.28 665.67" stroke="hsl(255, 6.5%, 15.8%)" stroke-width="1.5"></path><path d="M191.28 665.67L234.13 556.04" stroke="hsl(255, 6.5%, 15.8%)" stroke-width="1.5"></path><path d="M191.28 665.67L380.74 639.73" stroke="hsl(255, 6.5%, 15.8%)" stroke-width="1.5"></path><path d="M191.28 665.67L395.75 516.26" stroke="hsl(255, 6.5%, 15.8%)" stroke-width="1.5"></path><path d="M191.28 665.67L-61.23 696.87" stroke="hsl(255, 6.5%, 15.8%)" stroke-width="1.5"></path><path d="M380.74 639.73L380.74 639.73" stroke="hsl(255, 6.5%, 15.8%)" stroke-width="1.5"></path><path d="M380.74 639.73L395.75 516.26" stroke="hsl(255, 6.5%, 15.8%)" stroke-width="1.5"></path><path d="M380.74 639.73L507.96 638.89" stroke="hsl(255, 6.5%, 15.8%)" stroke-width="1.5"></path><path d="M380.74 639.73L501.8 561.01" stroke="hsl(255, 6.5%, 15.8%)" stroke-width="1.5"></path><path d="M380.74 639.73L234.13 556.04" stroke="hsl(255, 6.5%, 15.8%)" stroke-width="1.5"></path><path d="M1089.91 350.02L1089.91 350.02" stroke="hsl(255, 6.5%, 15.8%)" stroke-width="1.5"></path><path d="M1089.91 350.02L1009.25 380.71" stroke="hsl(255, 6.5%, 15.8%)" stroke-width="1.5"></path><path d="M1089.91 350.02L1151.25 228.35" stroke="hsl(255, 6.5%, 15.8%)" stroke-width="1.5"></path><path d="M1118.31 507.04L1118.31 507.04" stroke="hsl(255, 6.5%, 15.8%)" stroke-width="1.5"></path><path d="M1118.31 507.04L1009.38 523.89" stroke="hsl(255, 6.5%, 15.8%)" stroke-width="1.5"></path><path d="M1118.31 507.04L1265.37 512.59" stroke="hsl(255, 6.5%, 15.8%)" stroke-width="1.5"></path><path d="M1118.31 507.04L1089.91 350.02" stroke="hsl(255, 6.5%, 15.8%)" stroke-width="1.5"></path><path d="M1118.31 507.04L1009.25 380.71" stroke="hsl(255, 6.5%, 15.8%)" stroke-width="1.5"></path><path d="M1118.31 507.04L1283.21 355.35" stroke="hsl(255, 6.5%, 15.8%)" stroke-width="1.5"></path><path d="M1283.21 355.35L1283.21 355.35" stroke="hsl(255, 6.5%, 15.8%)" stroke-width="1.5"></path><path d="M1283.21 355.35L1425.92 393.45" stroke="hsl(255, 6.5%, 15.8%)" stroke-width="1.5"></path><path d="M1283.21 355.35L1277.86 197.3" stroke="hsl(255, 6.5%, 15.8%)" stroke-width="1.5"></path><path d="M1283.21 355.35L1265.37 512.59" stroke="hsl(255, 6.5%, 15.8%)" stroke-width="1.5"></path><path d="M1283.21 355.35L1411.35 226.48" stroke="hsl(255, 6.5%, 15.8%)" stroke-width="1.5"></path><path d="M1283.21 355.35L1151.25 228.35" stroke="hsl(255, 6.5%, 15.8%)" stroke-width="1.5"></path><path d="M1411.35 226.48L1411.35 226.48" stroke="hsl(255, 6.5%, 15.8%)" stroke-width="1.5"></path><path d="M1411.35 226.48L1277.86 197.3" stroke="hsl(255, 6.5%, 15.8%)" stroke-width="1.5"></path><path d="M1411.35 226.48L1425.92 393.45" stroke="hsl(255, 6.5%, 15.8%)" stroke-width="1.5"></path><path d="M1411.35 226.48L1598.32 258.32" stroke="hsl(255, 6.5%, 15.8%)" stroke-width="1.5"></path><path d="M-95.32 532.37L-95.32 532.37" stroke="hsl(255, 6.5%, 15.8%)" stroke-width="1.5"></path><path d="M-95.32 532.37L-61.23 696.87" stroke="hsl(255, 6.5%, 15.8%)" stroke-width="1.5"></path><path d="M-95.32 532.37L61.03 652.99" stroke="hsl(255, 6.5%, 15.8%)" stroke-width="1.5"></path><path d="M-95.32 532.37L191.28 665.67" stroke="hsl(255, 6.5%, 15.8%)" stroke-width="1.5"></path><path d="M-61.23 696.87L-61.23 696.87" stroke="hsl(255, 6.5%, 15.8%)" stroke-width="1.5"></path><path d="M-61.23 696.87L234.13 556.04" stroke="hsl(255, 6.5%, 15.8%)" stroke-width="1.5"></path><path d="M234.13 556.04L234.13 556.04" stroke="hsl(255, 6.5%, 15.8%)" stroke-width="1.5"></path><path d="M234.13 556.04L395.75 516.26" stroke="hsl(255, 6.5%, 15.8%)" stroke-width="1.5"></path><path d="M395.75 516.26L395.75 516.26" stroke="hsl(255, 6.5%, 15.8%)" stroke-width="1.5"></path><path d="M395.75 516.26L501.8 561.01" stroke="hsl(255, 6.5%, 15.8%)" stroke-width="1.5"></path><path d="M395.75 516.26L507.96 638.89" stroke="hsl(255, 6.5%, 15.8%)" stroke-width="1.5"></path><path d="M501.8 561.01L501.8 561.01" stroke="hsl(255, 6.5%, 15.8%)" stroke-width="1.5"></path><path d="M501.8 561.01L507.96 638.89" stroke="hsl(255, 6.5%, 15.8%)" stroke-width="1.5"></path><path d="M501.8 561.01L651.79 501.32" stroke="hsl(255, 6.5%, 15.8%)" stroke-width="1.5"></path><path d="M507.96 638.89L507.96 638.89" stroke="hsl(255, 6.5%, 15.8%)" stroke-width="1.5"></path><path d="M507.96 638.89L651.79 501.32" stroke="hsl(255, 6.5%, 15.8%)" stroke-width="1.5"></path><path d="M507.96 638.89L234.13 556.04" stroke="hsl(255, 6.5%, 15.8%)" stroke-width="1.5"></path><path d="M507.96 638.89L800.23 535.63" stroke="hsl(255, 6.5%, 15.8%)" stroke-width="1.5"></path><path d="M651.79 501.32L651.79 501.32" stroke="hsl(255, 6.5%, 15.8%)" stroke-width="1.5"></path><path d="M651.79 501.32L800.23 535.63" stroke="hsl(255, 6.5%, 15.8%)" stroke-width="1.5"></path><path d="M819.63 391.61L819.63 391.61" stroke="hsl(255, 6.5%, 15.8%)" stroke-width="1.5"></path><path d="M819.63 391.61L800.23 535.63" stroke="hsl(255, 6.5%, 15.8%)" stroke-width="1.5"></path><path d="M819.63 391.61L1009.25 380.71" stroke="hsl(255, 6.5%, 15.8%)" stroke-width="1.5"></path><path d="M819.63 391.61L651.79 501.32" stroke="hsl(255, 6.5%, 15.8%)" stroke-width="1.5"></path><path d="M800.23 535.63L800.23 535.63" stroke="hsl(255, 6.5%, 15.8%)" stroke-width="1.5"></path><path d="M800.23 535.63L826.27 700.39" stroke="hsl(255, 6.5%, 15.8%)" stroke-width="1.5"></path><path d="M800.23 535.63L1009.38 523.89" stroke="hsl(255, 6.5%, 15.8%)" stroke-width="1.5"></path><path d="M800.23 535.63L990.6 699.03" stroke="hsl(255, 6.5%, 15.8%)" stroke-width="1.5"></path><path d="M800.23 535.63L1009.25 380.71" stroke="hsl(255, 6.5%, 15.8%)" stroke-width="1.5"></path><path d="M826.27 700.39L826.27 700.39" stroke="hsl(255, 6.5%, 15.8%)" stroke-width="1.5"></path><path d="M826.27 700.39L990.6 699.03" stroke="hsl(255, 6.5%, 15.8%)" stroke-width="1.5"></path><path d="M826.27 700.39L1009.38 523.89" stroke="hsl(255, 6.5%, 15.8%)" stroke-width="1.5"></path><path d="M826.27 700.39L651.79 501.32" stroke="hsl(255, 6.5%, 15.8%)" stroke-width="1.5"></path><path d="M1009.25 380.71L1009.25 380.71" stroke="hsl(255, 6.5%, 15.8%)" stroke-width="1.5"></path><path d="M1009.25 380.71L1009.38 523.89" stroke="hsl(255, 6.5%, 15.8%)" stroke-width="1.5"></path><path d="M1009.25 380.71L1151.25 228.35" stroke="hsl(255, 6.5%, 15.8%)" stroke-width="1.5"></path><path d="M1009.38 523.89L1009.38 523.89" stroke="hsl(255, 6.5%, 15.8%)" stroke-width="1.5"></path><path d="M1009.38 523.89L990.6 699.03" stroke="hsl(255, 6.5%, 15.8%)" stroke-width="1.5"></path><path d="M990.6 699.03L990.6 699.03" stroke="hsl(255, 6.5%, 15.8%)" stroke-width="1.5"></path><path d="M990.6 699.03L1118.31 507.04" stroke="hsl(255, 6.5%, 15.8%)" stroke-width="1.5"></path><path d="M990.6 699.03L1306.12 679.21" stroke="hsl(255, 6.5%, 15.8%)" stroke-width="1.5"></path><path d="M990.6 699.03L1009.25 380.71" stroke="hsl(255, 6.5%, 15.8%)" stroke-width="1.5"></path><path d="M1146.05 97.94L1146.05 97.94" stroke="hsl(255, 6.5%, 15.8%)" stroke-width="1.5"></path><path d="M1146.05 97.94L1151.25 228.35" stroke="hsl(255, 6.5%, 15.8%)" stroke-width="1.5"></path><path d="M1146.05 97.94L1288.65 81.48" stroke="hsl(255, 6.5%, 15.8%)" stroke-width="1.5"></path><path d="M1146.05 97.94L1277.86 197.3" stroke="hsl(255, 6.5%, 15.8%)" stroke-width="1.5"></path><path d="M1146.05 97.94L1268.69 -39.57" stroke="hsl(255, 6.5%, 15.8%)" stroke-width="1.5"></path><path d="M1151.25 228.35L1151.25 228.35" stroke="hsl(255, 6.5%, 15.8%)" stroke-width="1.5"></path><path d="M1151.25 228.35L1277.86 197.3" stroke="hsl(255, 6.5%, 15.8%)" stroke-width="1.5"></path><path d="M1151.25 228.35L1288.65 81.48" stroke="hsl(255, 6.5%, 15.8%)" stroke-width="1.5"></path><path d="M1268.69 -39.57L1268.69 -39.57" stroke="hsl(255, 6.5%, 15.8%)" stroke-width="1.5"></path><path d="M1268.69 -39.57L1288.65 81.48" stroke="hsl(255, 6.5%, 15.8%)" stroke-width="1.5"></path><path d="M1268.69 -39.57L1393.51 -56.29" stroke="hsl(255, 6.5%, 15.8%)" stroke-width="1.5"></path><path d="M1268.69 -39.57L1277.86 197.3" stroke="hsl(255, 6.5%, 15.8%)" stroke-width="1.5"></path><path d="M1288.65 81.48L1288.65 81.48" stroke="hsl(255, 6.5%, 15.8%)" stroke-width="1.5"></path><path d="M1288.65 81.48L1277.86 197.3" stroke="hsl(255, 6.5%, 15.8%)" stroke-width="1.5"></path><path d="M1288.65 81.48L1393.51 -56.29" stroke="hsl(255, 6.5%, 15.8%)" stroke-width="1.5"></path><path d="M1288.65 81.48L1411.35 226.48" stroke="hsl(255, 6.5%, 15.8%)" stroke-width="1.5"></path><path d="M1277.86 197.3L1277.86 197.3" stroke="hsl(255, 6.5%, 15.8%)" stroke-width="1.5"></path><path d="M1265.37 512.59L1265.37 512.59" stroke="hsl(255, 6.5%, 15.8%)" stroke-width="1.5"></path><path d="M1265.37 512.59L1433.4 502.62" stroke="hsl(255, 6.5%, 15.8%)" stroke-width="1.5"></path><path d="M1265.37 512.59L1306.12 679.21" stroke="hsl(255, 6.5%, 15.8%)" stroke-width="1.5"></path><path d="M1265.37 512.59L1425.92 393.45" stroke="hsl(255, 6.5%, 15.8%)" stroke-width="1.5"></path><path d="M1306.12 679.21L1306.12 679.21" stroke="hsl(255, 6.5%, 15.8%)" stroke-width="1.5"></path><path d="M1306.12 679.21L1416.6 695.96" stroke="hsl(255, 6.5%, 15.8%)" stroke-width="1.5"></path><path d="M1306.12 679.21L1433.4 502.62" stroke="hsl(255, 6.5%, 15.8%)" stroke-width="1.5"></path><path d="M1306.12 679.21L1118.31 507.04" stroke="hsl(255, 6.5%, 15.8%)" stroke-width="1.5"></path><path d="M1393.51 -56.29L1393.51 -56.29" stroke="hsl(255, 6.5%, 15.8%)" stroke-width="1.5"></path><path d="M1393.51 -56.29L1597.1 -45.23" stroke="hsl(255, 6.5%, 15.8%)" stroke-width="1.5"></path><path d="M1393.51 -56.29L1574.58 46.52" stroke="hsl(255, 6.5%, 15.8%)" stroke-width="1.5"></path><path d="M1425.92 393.45L1425.92 393.45" stroke="hsl(255, 6.5%, 15.8%)" stroke-width="1.5"></path><path d="M1425.92 393.45L1433.4 502.62" stroke="hsl(255, 6.5%, 15.8%)" stroke-width="1.5"></path><path d="M1425.92 393.45L1574.44 394.11" stroke="hsl(255, 6.5%, 15.8%)" stroke-width="1.5"></path><path d="M1433.4 502.62L1433.4 502.62" stroke="hsl(255, 6.5%, 15.8%)" stroke-width="1.5"></path><path d="M1416.6 695.96L1416.6 695.96" stroke="hsl(255, 6.5%, 15.8%)" stroke-width="1.5"></path><path d="M1416.6 695.96L1433.4 502.62" stroke="hsl(255, 6.5%, 15.8%)" stroke-width="1.5"></path><path d="M1597.1 -45.23L1597.1 -45.23" stroke="hsl(255, 6.5%, 15.8%)" stroke-width="1.5"></path><path d="M1597.1 -45.23L1574.58 46.52" stroke="hsl(255, 6.5%, 15.8%)" stroke-width="1.5"></path><path d="M1574.58 46.52L1574.58 46.52" stroke="hsl(255, 6.5%, 15.8%)" stroke-width="1.5"></path><path d="M1574.58 46.52L1598.32 258.32" stroke="hsl(255, 6.5%, 15.8%)" stroke-width="1.5"></path><path d="M1574.58 46.52L1411.35 226.48" stroke="hsl(255, 6.5%, 15.8%)" stroke-width="1.5"></path><path d="M1574.58 46.52L1288.65 81.48" stroke="hsl(255, 6.5%, 15.8%)" stroke-width="1.5"></path><path d="M1598.32 258.32L1598.32 258.32" stroke="hsl(255, 6.5%, 15.8%)" stroke-width="1.5"></path><path d="M1598.32 258.32L1574.44 394.11" stroke="hsl(255, 6.5%, 15.8%)" stroke-width="1.5"></path><path d="M1598.32 258.32L1425.92 393.45" stroke="hsl(255, 6.5%, 15.8%)" stroke-width="1.5"></path><path d="M1574.44 394.11L1574.44 394.11" stroke="hsl(255, 6.5%, 15.8%)" stroke-width="1.5"></path><circle r="25" cx="61.03" cy="652.99" fill="url(&quot;#SvgjsRadialGradient1017&quot;)"></circle><circle r="25" cx="191.28" cy="665.67" fill="url(&quot;#SvgjsRadialGradient1017&quot;)"></circle><circle r="25" cx="380.74" cy="639.73" fill="url(&quot;#SvgjsRadialGradient1017&quot;)"></circle><circle r="25" cx="1089.91" cy="350.02" fill="url(&quot;#SvgjsRadialGradient1017&quot;)"></circle><circle r="25" cx="1118.31" cy="507.04" fill="url(&quot;#SvgjsRadialGradient1017&quot;)"></circle><circle r="25" cx="1283.21" cy="355.35" fill="url(&quot;#SvgjsRadialGradient1017&quot;)"></circle><circle r="25" cx="1411.35" cy="226.48" fill="url(&quot;#SvgjsRadialGradient1017&quot;)"></circle><circle r="5" cx="-95.32" cy="532.37" fill="#8f8e90"></circle><circle r="5" cx="-61.23" cy="696.87" fill="#8f8e90"></circle><circle r="5" cx="234.13" cy="556.04" fill="#8f8e90"></circle><circle r="5" cx="395.75" cy="516.26" fill="#8f8e90"></circle><circle r="5" cx="501.8" cy="561.01" fill="#8f8e90"></circle><circle r="5" cx="507.96" cy="638.89" fill="#8f8e90"></circle><circle r="5" cx="651.79" cy="501.32" fill="#8f8e90"></circle><circle r="5" cx="819.63" cy="391.61" fill="#8f8e90"></circle><circle r="5" cx="800.23" cy="535.63" fill="#8f8e90"></circle><circle r="5" cx="826.27" cy="700.39" fill="#8f8e90"></circle><circle r="5" cx="1009.25" cy="380.71" fill="#8f8e90"></circle><circle r="5" cx="1009.38" cy="523.89" fill="#8f8e90"></circle><circle r="5" cx="990.6" cy="699.03" fill="#8f8e90"></circle><circle r="5" cx="1146.05" cy="97.94" fill="#8f8e90"></circle><circle r="5" cx="1151.25" cy="228.35" fill="#8f8e90"></circle><circle r="5" cx="1268.69" cy="-39.57" fill="#8f8e90"></circle><circle r="5" cx="1288.65" cy="81.48" fill="#8f8e90"></circle><circle r="5" cx="1277.86" cy="197.3" fill="#8f8e90"></circle><circle r="5" cx="1265.37" cy="512.59" fill="#8f8e90"></circle><circle r="5" cx="1306.12" cy="679.21" fill="#8f8e90"></circle><circle r="5" cx="1393.51" cy="-56.29" fill="#8f8e90"></circle><circle r="5" cx="1425.92" cy="393.45" fill="#8f8e90"></circle><circle r="5" cx="1433.4" cy="502.62" fill="#8f8e90"></circle><circle r="5" cx="1416.6" cy="695.96" fill="#8f8e90"></circle><circle r="5" cx="1597.1" cy="-45.23" fill="#8f8e90"></circle><circle r="5" cx="1574.58" cy="46.52" fill="#8f8e90"></circle><circle r="5" cx="1598.32" cy="258.32" fill="#8f8e90"></circle><circle r="5" cx="1574.44" cy="394.11" fill="#8f8e90"></circle></g><defs><mask id="SvgjsMask1016"><rect width="1440" height="560" fill="#ffffff"></rect></mask><radialGradient id="SvgjsRadialGradient1017"><stop stop-color="#ffffff" offset="0.1"></stop><stop stop-color="rgba(30, 29, 33, 1)" offset="0.2"></stop><stop stop-color="rgba(30, 29, 33, 0)" offset="1"></stop></radialGradient></defs></svg>