<svg xmlns="http://www.w3.org/2000/svg" xmlns:xlink="http://www.w3.org/1999/xlink" width="500" zoomAndPan="magnify" viewBox="0 0 375 303.749993" height="405" preserveAspectRatio="xMidYMid meet" version="1.0"><defs><clipPath id="c0702272ef"><path d="M 0.152344 0 L 374.84375 0 L 374.84375 303.5 L 0.152344 303.5 Z M 0.152344 0 " clip-rule="nonzero"/></clipPath></defs><g clip-path="url(#c0702272ef)"><path fill="#1649ff" d="M 104.992188 29.75 L 185.550781 29.75 C 202.710938 29.75 217.476562 25.777344 232.386719 17.234375 L 259.890625 1.347656 C 262.214844 0 264.835938 0 267.085938 1.347656 C 269.40625 2.699219 270.679688 4.945312 270.679688 7.570312 L 270.679688 29.75 L 326.660156 29.75 C 339.847656 29.75 350.640625 40.542969 350.640625 53.730469 L 350.640625 126.496094 L 368.25 126.496094 C 371.847656 126.496094 374.847656 129.492188 374.847656 133.089844 L 374.847656 170.410156 C 374.847656 174.007812 371.847656 177.003906 368.25 177.003906 L 350.640625 177.003906 L 350.640625 193.117188 C 350.640625 215.296875 341.574219 235.457031 326.960938 250.070312 C 312.347656 264.683594 292.1875 273.75 270.007812 273.75 L 189.449219 273.75 C 172.289062 273.75 157.523438 277.722656 142.613281 286.265625 L 115.109375 302.152344 C 112.785156 303.5 110.164062 303.5 107.914062 302.152344 C 105.59375 300.800781 104.320312 298.554688 104.320312 295.929688 L 104.320312 273.75 L 48.339844 273.75 C 35.152344 273.75 24.359375 262.957031 24.359375 249.769531 L 24.359375 177.003906 L 6.75 177.003906 C 3.152344 177.003906 0.152344 174.007812 0.152344 170.410156 L 0.152344 133.089844 C 0.152344 129.492188 3.152344 126.496094 6.75 126.496094 L 24.359375 126.496094 L 24.359375 110.382812 C 24.359375 88.203125 33.425781 68.042969 48.039062 53.429688 C 62.652344 38.816406 82.8125 29.75 104.992188 29.75 Z M 161.273438 151.75 C 161.273438 138.9375 150.855469 128.519531 138.039062 128.519531 C 125.226562 128.519531 114.808594 138.9375 114.808594 151.75 C 114.808594 164.566406 125.226562 174.980469 138.039062 174.980469 C 150.855469 174.980469 161.273438 164.566406 161.273438 151.75 Z M 260.191406 151.75 C 260.191406 138.9375 249.773438 128.519531 236.960938 128.519531 C 224.144531 128.519531 213.726562 138.9375 213.726562 151.75 C 213.726562 164.566406 224.144531 174.980469 236.960938 174.980469 C 249.773438 174.980469 260.191406 164.566406 260.191406 151.75 Z M 320.664062 151.75 L 320.664062 59.800781 C 313.621094 59.800781 306.503906 59.800781 299.457031 59.800781 C 283.570312 59.800781 270.679688 46.835938 270.679688 31.023438 L 270.679688 29.824219 L 249.625 41.964844 C 228.417969 54.179688 207.507812 59.800781 183.003906 59.800781 L 104.992188 59.800781 C 91.054688 59.800781 78.464844 65.496094 69.246094 74.714844 C 60.03125 83.929688 54.335938 96.519531 54.335938 110.460938 L 54.335938 243.773438 C 61.378906 243.773438 68.496094 243.773438 75.542969 243.773438 C 91.429688 243.773438 104.320312 256.738281 104.320312 272.550781 L 104.320312 273.75 L 125.375 261.609375 C 146.582031 249.394531 167.492188 243.773438 191.996094 243.773438 L 270.007812 243.773438 C 283.945312 243.773438 296.535156 238.078125 305.753906 228.863281 C 314.96875 219.644531 320.664062 207.054688 320.664062 193.117188 Z M 320.664062 151.75 " fill-opacity="1" fill-rule="evenodd"/></g></svg>