<svg xmlns="http://www.w3.org/2000/svg" xmlns:xlink="http://www.w3.org/1999/xlink" width="500" zoomAndPan="magnify" viewBox="0 0 375 374.999991" height="500" preserveAspectRatio="xMidYMid meet" version="1.0"><defs><clipPath id="cba8d79a4d"><path d="M 128.097656 115.304688 L 246.597656 115.304688 L 246.597656 196.304688 L 128.097656 196.304688 Z M 128.097656 115.304688 " clip-rule="nonzero"/></clipPath></defs><g clip-path="url(#cba8d79a4d)"><path fill="#1649ff" d="M 231.859375 192.601562 L 143.136719 192.601562 C 137.863281 192.601562 133.484375 188.765625 132.621094 183.730469 L 242.363281 183.730469 C 241.519531 188.765625 237.132812 192.601562 231.859375 192.601562 Z M 139.351562 121.128906 C 139.351562 119.851562 140.347656 118.839844 141.628906 118.839844 L 233.347656 118.839844 C 234.625 118.839844 235.636719 119.851562 235.636719 121.128906 L 235.636719 180.15625 L 139.351562 180.15625 Z M 244.289062 180.175781 L 239.203125 180.175781 L 239.203125 121.128906 C 239.203125 117.917969 236.59375 115.296875 233.359375 115.296875 L 141.628906 115.296875 C 138.414062 115.296875 135.792969 117.917969 135.792969 121.128906 L 135.792969 180.15625 L 130.707031 180.15625 C 129.722656 180.175781 128.929688 180.964844 128.929688 181.953125 C 128.929688 189.785156 135.304688 196.160156 143.136719 196.160156 L 231.859375 196.160156 C 239.691406 196.160156 246.066406 189.785156 246.066406 181.953125 C 246.066406 180.964844 245.285156 180.175781 244.289062 180.175781 " fill-opacity="1" fill-rule="nonzero"/></g><path fill="#1649ff" d="M 225.453125 172.25 L 149.542969 172.25 L 149.542969 126.859375 L 225.445312 126.859375 L 225.445312 172.25 Z M 227.234375 123.3125 L 147.761719 123.3125 C 146.773438 123.3125 145.984375 124.105469 145.984375 125.089844 L 145.984375 174.03125 C 145.984375 175.015625 146.773438 175.808594 147.761719 175.808594 L 227.210938 175.808594 C 228.199219 175.808594 228.992188 175.015625 228.992188 174.03125 L 228.992188 125.089844 C 229.011719 124.105469 228.199219 123.3125 227.234375 123.3125 " fill-opacity="1" fill-rule="nonzero"/><path fill="#1649ff" d="M 182.496094 163.652344 C 182.703125 163.722656 182.890625 163.753906 183.089844 163.753906 C 183.816406 163.753906 184.492188 163.296875 184.753906 162.570312 L 193.476562 137.714844 C 193.808594 136.78125 193.3125 135.769531 192.40625 135.449219 C 191.46875 135.117188 190.460938 135.617188 190.128906 136.53125 L 181.402344 161.382812 C 181.09375 162.308594 181.589844 163.320312 182.496094 163.652344 Z M 210.230469 149.925781 L 198.355469 159.335938 C 197.585938 159.9375 197.449219 161.050781 198.0625 161.820312 C 198.40625 162.257812 198.9375 162.496094 199.445312 162.496094 C 199.832031 162.496094 200.214844 162.371094 200.550781 162.113281 L 214.171875 151.328125 C 214.585938 151.007812 214.847656 150.484375 214.847656 149.957031 C 214.847656 149.425781 214.597656 148.914062 214.183594 148.574219 L 199.996094 137 C 199.226562 136.386719 198.117188 136.488281 197.511719 137.257812 C 196.886719 138.027344 197.003906 139.140625 197.761719 139.742188 Z M 174.449219 162.113281 C 174.78125 162.371094 175.164062 162.496094 175.550781 162.496094 C 176.078125 162.496094 176.589844 162.257812 176.933594 161.820312 C 177.546875 161.050781 177.410156 159.9375 176.640625 159.335938 L 164.765625 149.925781 L 177.234375 139.742188 C 177.992188 139.128906 178.109375 138.007812 177.484375 137.257812 C 176.871094 136.488281 175.746094 136.386719 175 137 L 160.8125 148.574219 C 160.398438 148.914062 160.148438 149.40625 160.148438 149.957031 C 160.148438 150.484375 160.410156 151.007812 160.835938 151.328125 L 174.449219 162.113281 " fill-opacity="1" fill-rule="nonzero"/></svg>