<svg xmlns="http://www.w3.org/2000/svg" xmlns:xlink="http://www.w3.org/1999/xlink" width="500" zoomAndPan="magnify" viewBox="0 0 375 374.999991" height="500" preserveAspectRatio="xMidYMid meet" version="1.0"><defs><clipPath id="760909bbf3"><path d="M 127.046875 106.460938 L 247.796875 106.460938 L 247.796875 204.710938 L 127.046875 204.710938 Z M 127.046875 106.460938 " clip-rule="nonzero"/></clipPath></defs><g clip-path="url(#760909bbf3)"><path fill="#1649ff" d="M 160.875 116.0625 L 186.867188 116.0625 C 192.40625 116.0625 197.167969 114.78125 201.980469 112.023438 L 210.855469 106.898438 C 211.605469 106.460938 212.449219 106.460938 213.175781 106.898438 C 213.925781 107.332031 214.335938 108.058594 214.335938 108.90625 L 214.335938 116.0625 L 232.398438 116.0625 C 236.65625 116.0625 240.136719 119.542969 240.136719 123.800781 L 240.136719 147.277344 L 245.820312 147.277344 C 246.980469 147.277344 247.949219 148.246094 247.949219 149.40625 L 247.949219 161.449219 C 247.949219 162.609375 246.980469 163.578125 245.820312 163.578125 L 240.136719 163.578125 L 240.136719 168.773438 C 240.136719 175.933594 237.210938 182.4375 232.496094 187.152344 C 227.78125 191.867188 221.277344 194.792969 214.117188 194.792969 L 188.125 194.792969 C 182.585938 194.792969 177.824219 196.074219 173.011719 198.832031 L 164.136719 203.957031 C 163.386719 204.394531 162.542969 204.394531 161.816406 203.957031 C 161.066406 203.523438 160.65625 202.796875 160.65625 201.949219 L 160.65625 194.792969 L 142.59375 194.792969 C 138.335938 194.792969 134.855469 191.3125 134.855469 187.054688 L 134.855469 163.578125 L 129.171875 163.578125 C 128.011719 163.578125 127.046875 162.609375 127.046875 161.449219 L 127.046875 149.40625 C 127.046875 148.246094 128.011719 147.277344 129.171875 147.277344 L 134.855469 147.277344 L 134.855469 142.078125 C 134.855469 134.921875 137.78125 128.417969 142.496094 123.703125 C 147.210938 118.988281 153.714844 116.0625 160.875 116.0625 Z M 179.035156 155.425781 C 179.035156 151.292969 175.671875 147.933594 171.539062 147.933594 C 167.402344 147.933594 164.042969 151.292969 164.042969 155.425781 C 164.042969 159.5625 167.402344 162.921875 171.539062 162.921875 C 175.671875 162.921875 179.035156 159.5625 179.035156 155.425781 Z M 210.953125 155.425781 C 210.953125 151.292969 207.589844 147.933594 203.457031 147.933594 C 199.320312 147.933594 195.960938 151.292969 195.960938 155.425781 C 195.960938 159.5625 199.320312 162.921875 203.457031 162.921875 C 207.589844 162.921875 210.953125 159.5625 210.953125 155.425781 Z M 230.464844 155.425781 L 230.464844 125.757812 C 228.191406 125.757812 225.894531 125.757812 223.621094 125.757812 C 218.496094 125.757812 214.335938 121.574219 214.335938 116.472656 L 214.335938 116.085938 L 207.542969 120.003906 C 200.699219 123.945312 193.953125 125.757812 186.046875 125.757812 L 160.875 125.757812 C 156.375 125.757812 152.3125 127.597656 149.339844 130.570312 C 146.367188 133.542969 144.527344 137.605469 144.527344 142.105469 L 144.527344 185.121094 C 146.800781 185.121094 149.097656 185.121094 151.371094 185.121094 C 156.496094 185.121094 160.65625 189.304688 160.65625 194.40625 L 160.65625 194.792969 L 167.449219 190.875 C 174.292969 186.933594 181.039062 185.121094 188.949219 185.121094 L 214.121094 185.121094 C 218.617188 185.121094 222.679688 183.285156 225.652344 180.308594 C 228.628906 177.335938 230.464844 173.273438 230.464844 168.773438 Z M 230.464844 155.425781 " fill-opacity="1" fill-rule="evenodd"/></g></svg>