<svg xmlns="http://www.w3.org/2000/svg" xmlns:xlink="http://www.w3.org/1999/xlink" width="500" zoomAndPan="magnify" viewBox="0 0 375 374.999991" height="500" preserveAspectRatio="xMidYMid meet" version="1.0"><defs><clipPath id="2231205a36"><path d="M 122.417969 107.804688 L 252.917969 107.804688 L 252.917969 206.804688 L 122.417969 206.804688 Z M 122.417969 107.804688 " clip-rule="nonzero"/></clipPath></defs><g clip-path="url(#2231205a36)"><path fill="#1649ff" d="M 248.390625 181.601562 L 241.667969 181.601562 L 241.667969 121.003906 C 241.667969 113.722656 235.746094 107.800781 228.464844 107.800781 L 146.527344 107.800781 C 139.25 107.800781 133.324219 113.722656 133.324219 121.003906 L 133.324219 181.601562 L 126.601562 181.601562 C 124.355469 181.601562 122.53125 183.425781 122.53125 185.675781 L 122.53125 196.613281 C 122.53125 202.28125 127.140625 206.890625 132.8125 206.890625 L 242.179688 206.890625 C 247.851562 206.890625 252.460938 202.28125 252.460938 196.613281 L 252.460938 185.675781 C 252.460938 183.425781 250.636719 181.601562 248.390625 181.601562 Z M 141.46875 121.003906 C 141.46875 118.214844 143.738281 115.941406 146.527344 115.941406 L 228.464844 115.941406 C 231.253906 115.941406 233.523438 118.214844 233.523438 121.003906 L 233.523438 181.601562 L 141.46875 181.601562 Z M 244.320312 196.613281 C 244.320312 197.789062 243.359375 198.75 242.179688 198.75 L 132.8125 198.75 C 131.632812 198.75 130.671875 197.789062 130.671875 196.613281 L 130.671875 189.746094 L 174.359375 189.746094 C 174.699219 191.652344 176.359375 193.101562 178.363281 193.101562 L 196.628906 193.101562 C 198.632812 193.101562 200.292969 191.652344 200.632812 189.746094 L 244.320312 189.746094 Z M 244.320312 196.613281 " fill-opacity="1" fill-rule="nonzero"/></g><path fill="#1649ff" d="M 172.453125 135.769531 C 170.863281 134.179688 168.285156 134.179688 166.695312 135.769531 L 154.785156 147.675781 C 154.023438 148.441406 153.59375 149.476562 153.59375 150.554688 C 153.59375 151.636719 154.023438 152.671875 154.785156 153.433594 L 166.695312 165.34375 C 167.492188 166.136719 168.53125 166.535156 169.574219 166.535156 C 170.617188 166.535156 171.65625 166.136719 172.453125 165.34375 C 174.042969 163.753906 174.042969 161.175781 172.453125 159.585938 L 163.421875 150.554688 L 172.453125 141.527344 C 174.042969 139.9375 174.042969 137.359375 172.453125 135.769531 Z M 172.453125 135.769531 " fill-opacity="1" fill-rule="nonzero"/><path fill="#1649ff" d="M 208.296875 135.769531 C 206.707031 134.179688 204.128906 134.179688 202.539062 135.769531 C 200.949219 137.359375 200.949219 139.9375 202.539062 141.527344 L 211.570312 150.554688 L 202.539062 159.585938 C 200.949219 161.175781 200.949219 163.753906 202.539062 165.34375 C 203.335938 166.136719 204.375 166.535156 205.417969 166.535156 C 206.460938 166.535156 207.5 166.136719 208.296875 165.34375 L 220.207031 153.433594 C 220.96875 152.671875 221.398438 151.636719 221.398438 150.554688 C 221.398438 149.476562 220.96875 148.441406 220.207031 147.675781 Z M 208.296875 135.769531 " fill-opacity="1" fill-rule="nonzero"/><path fill="#1649ff" d="M 194.882812 131.558594 C 192.789062 130.742188 190.429688 131.78125 189.613281 133.878906 L 177.789062 164.28125 C 176.976562 166.378906 178.011719 168.738281 180.109375 169.550781 C 180.59375 169.742188 181.09375 169.828125 181.582031 169.828125 C 183.214844 169.828125 184.753906 168.84375 185.378906 167.234375 L 197.203125 136.828125 C 198.015625 134.734375 196.980469 132.375 194.882812 131.558594 Z M 194.882812 131.558594 " fill-opacity="1" fill-rule="nonzero"/></svg>