<svg xmlns="http://www.w3.org/2000/svg" xmlns:xlink="http://www.w3.org/1999/xlink" width="500" zoomAndPan="magnify" viewBox="0 0 375 374.999991" height="500" preserveAspectRatio="xMidYMid meet" version="1.0"><defs><clipPath id="b2034c8d38"><path d="M 153.339844 254 L 272 254 L 272 269.371094 L 153.339844 269.371094 Z M 153.339844 254 " clip-rule="nonzero"/></clipPath><clipPath id="94ea91d940"><path d="M 247 119 L 295.839844 119 L 295.839844 168 L 247 168 Z M 247 119 " clip-rule="nonzero"/></clipPath></defs><path fill="#1649ff" d="M 212.199219 197.800781 C 211.5625 197.800781 210.960938 197.515625 210.558594 197.019531 L 199.125 182.894531 C 198.820312 182.519531 198.65625 182.050781 198.65625 181.570312 L 198.65625 171.082031 C 198.65625 170.292969 199.089844 169.578125 199.785156 169.210938 C 200.480469 168.847656 201.324219 168.898438 201.964844 169.347656 C 204.988281 171.453125 208.527344 172.570312 212.199219 172.570312 C 215.867188 172.570312 219.40625 171.457031 222.429688 169.347656 C 223.074219 168.898438 223.914062 168.847656 224.609375 169.210938 C 225.304688 169.574219 225.742188 170.292969 225.742188 171.082031 L 225.742188 181.570312 C 225.742188 182.054688 225.574219 182.523438 225.273438 182.894531 L 213.835938 197.019531 C 213.4375 197.511719 212.835938 197.800781 212.199219 197.800781 Z M 202.871094 180.820312 L 212.199219 192.339844 L 221.523438 180.820312 L 221.523438 174.71875 C 218.617188 176.074219 215.445312 176.78125 212.199219 176.78125 C 208.949219 176.78125 205.78125 176.074219 202.871094 174.71875 Z M 202.871094 180.820312 " fill-opacity="1" fill-rule="nonzero"/><path fill="#1649ff" d="M 212.199219 176.78125 C 199.953125 176.78125 189.996094 166.820312 189.996094 154.582031 L 189.996094 153.164062 C 189.996094 152 190.941406 151.054688 192.105469 151.054688 C 193.269531 151.054688 194.210938 152 194.210938 153.164062 L 194.210938 154.582031 C 194.210938 164.496094 202.28125 172.570312 212.203125 172.570312 C 222.117188 172.570312 230.191406 164.5 230.191406 154.582031 L 230.191406 151.171875 C 230.191406 150.007812 231.132812 149.0625 232.296875 149.0625 C 233.460938 149.0625 234.40625 150.007812 234.40625 151.171875 L 234.40625 154.582031 C 234.402344 166.820312 224.441406 176.78125 212.199219 176.78125 Z M 212.199219 176.78125 " fill-opacity="1" fill-rule="nonzero"/><path fill="#1649ff" d="M 192.101562 155.273438 C 191.417969 155.273438 190.792969 154.9375 190.410156 154.417969 C 189.269531 153.390625 186.046875 150.359375 185.640625 138.785156 C 185.550781 138.683594 185.464844 138.574219 185.382812 138.460938 C 184.410156 137.105469 183.398438 134.199219 185.878906 124.695312 C 185.894531 124.636719 185.914062 124.578125 185.933594 124.523438 C 186.019531 124.289062 187.953125 119.042969 194.886719 117.105469 C 197.089844 112.601562 202.921875 105.910156 212.28125 107.4375 C 213.054688 107.566406 213.695312 108.109375 213.941406 108.851562 C 213.960938 108.90625 213.992188 109 214.027344 109.128906 C 217.941406 108.300781 225.316406 107.46875 229.335938 111.667969 C 229.683594 112.03125 229.890625 112.507812 229.917969 113.007812 C 229.9375 113.320312 229.921875 114.359375 229.085938 115.394531 C 230.183594 116.0625 231.363281 116.921875 232.53125 118.019531 C 236.210938 121.480469 240.496094 128.0625 240.027344 139.792969 C 240.019531 140 239.980469 140.199219 239.914062 140.394531 C 239.824219 140.648438 237.699219 146.765625 234.0625 152.324219 C 233.53125 153.136719 232.515625 153.480469 231.597656 153.15625 C 230.683594 152.835938 230.105469 151.929688 230.199219 150.964844 C 230.746094 145.230469 230.535156 134.996094 227.628906 131.949219 C 227.1875 131.484375 226.726562 131.242188 226.167969 131.1875 C 217.980469 135.292969 206.433594 135.292969 198.242188 131.191406 C 197.761719 131.25 197.355469 131.472656 196.957031 131.890625 C 193.878906 135.089844 193.632812 146.488281 194.203125 152.945312 C 194.203125 152.980469 194.207031 153.023438 194.207031 153.058594 C 194.261719 154.203125 193.394531 155.183594 192.246094 155.261719 C 192.199219 155.269531 192.148438 155.273438 192.101562 155.273438 Z M 225.910156 126.960938 C 227.730469 126.960938 229.375 127.675781 230.675781 129.042969 C 233.410156 131.90625 234.339844 137.492188 234.582031 142.375 C 235.214844 140.925781 235.640625 139.804688 235.820312 139.308594 C 236.429688 120.558594 223.710938 117.464844 223.167969 117.34375 C 222.125 117.105469 221.414062 116.125 221.53125 115.058594 C 221.644531 113.996094 222.539062 113.1875 223.605469 113.179688 C 223.683594 113.179688 223.757812 113.179688 223.828125 113.175781 C 220.175781 112.070312 214.800781 113.167969 212.789062 113.789062 C 212.085938 114.011719 211.316406 113.839844 210.761719 113.351562 C 210.226562 112.871094 209.96875 112.152344 210.082031 111.445312 C 206.824219 111.300781 203.953125 112.496094 201.511719 115.003906 C 199.363281 117.214844 198.355469 119.664062 198.347656 119.6875 C 198.085938 120.34375 197.515625 120.824219 196.828125 120.96875 C 191.761719 122.054688 190.15625 125.351562 189.921875 125.890625 C 188.09375 132.949219 188.535156 135.273438 188.738281 135.855469 C 189.375 136.210938 189.804688 136.882812 189.820312 137.65625 C 189.84375 138.726562 189.890625 139.863281 189.980469 141.011719 C 190.40625 136.316406 191.476562 131.503906 193.910156 128.972656 C 195.253906 127.570312 196.953125 126.882812 198.828125 126.972656 C 199.136719 126.984375 199.4375 127.070312 199.710938 127.210938 C 206.824219 130.984375 217.558594 130.984375 224.671875 127.210938 C 224.945312 127.066406 225.246094 126.984375 225.558594 126.972656 C 225.679688 126.964844 225.796875 126.960938 225.910156 126.960938 Z M 187.878906 135.59375 Z M 187.875 135.59375 Z M 187.871094 135.59375 Z M 187.871094 135.59375 " fill-opacity="1" fill-rule="nonzero"/><path fill="#1649ff" d="M 254.40625 205.167969 L 169.992188 205.167969 C 169.375 205.167969 168.789062 204.894531 168.386719 204.421875 C 167.984375 203.953125 167.8125 203.328125 167.910156 202.71875 C 168.960938 196.296875 172.28125 190.40625 177.261719 186.125 C 182.300781 181.792969 188.714844 179.410156 195.328125 179.410156 L 200.761719 179.410156 C 201.554688 179.410156 202.25 179.847656 202.605469 180.496094 L 212.199219 192.339844 L 221.789062 180.496094 C 222.148438 179.847656 222.839844 179.410156 223.632812 179.410156 L 229.066406 179.410156 C 235.675781 179.410156 242.09375 181.792969 247.132812 186.125 C 252.113281 190.40625 255.4375 196.300781 256.484375 202.71875 C 256.585938 203.328125 256.414062 203.953125 256.015625 204.421875 C 255.613281 204.894531 255.027344 205.167969 254.40625 205.167969 Z M 172.613281 200.953125 L 251.789062 200.953125 C 249 190.921875 239.640625 183.628906 229.066406 183.628906 L 224.679688 183.628906 L 213.832031 197.019531 C 213.433594 197.515625 212.832031 197.800781 212.195312 197.800781 C 211.558594 197.800781 210.957031 197.515625 210.554688 197.019531 L 199.707031 183.628906 L 195.320312 183.628906 C 184.757812 183.625 175.398438 190.917969 172.613281 200.953125 Z M 172.613281 200.953125 " fill-opacity="1" fill-rule="nonzero"/><path fill="#1649ff" d="M 260.40625 258.539062 L 163.992188 258.539062 C 162.941406 258.539062 162.050781 257.765625 161.90625 256.726562 L 154.308594 203.359375 C 154.21875 202.753906 154.402344 202.140625 154.800781 201.679688 C 155.199219 201.21875 155.78125 200.953125 156.394531 200.953125 L 268.003906 200.953125 C 268.617188 200.953125 269.199219 201.21875 269.597656 201.679688 C 269.996094 202.140625 270.179688 202.75 270.089844 203.359375 L 262.492188 256.726562 C 262.34375 257.765625 261.457031 258.539062 260.40625 258.539062 Z M 165.820312 254.320312 L 258.574219 254.320312 L 265.574219 205.171875 L 158.824219 205.171875 Z M 165.820312 254.320312 " fill-opacity="1" fill-rule="nonzero"/><g clip-path="url(#b2034c8d38)"><path fill="#1649ff" d="M 257.976562 269.507812 L 166.421875 269.507812 C 159.210938 269.507812 153.34375 263.640625 153.34375 256.429688 C 153.34375 255.265625 154.289062 254.320312 155.453125 254.320312 L 268.949219 254.320312 C 270.113281 254.320312 271.058594 255.265625 271.058594 256.429688 C 271.054688 263.640625 265.1875 269.507812 257.976562 269.507812 Z M 157.8125 258.539062 C 158.761719 262.410156 162.261719 265.292969 166.421875 265.292969 L 257.976562 265.292969 C 262.136719 265.292969 265.636719 262.410156 266.585938 258.539062 Z M 157.8125 258.539062 " fill-opacity="1" fill-rule="nonzero"/></g><path fill="#1649ff" d="M 212.199219 244.917969 C 203.832031 244.917969 197.027344 238.109375 197.027344 229.746094 C 197.027344 221.378906 203.832031 214.574219 212.199219 214.574219 C 220.5625 214.574219 227.367188 221.378906 227.367188 229.746094 C 227.367188 238.109375 220.566406 244.917969 212.199219 244.917969 Z M 212.199219 218.789062 C 206.15625 218.789062 201.242188 223.703125 201.242188 229.746094 C 201.242188 235.789062 206.15625 240.703125 212.199219 240.703125 C 218.238281 240.703125 223.152344 235.789062 223.152344 229.746094 C 223.152344 223.703125 218.238281 218.789062 212.199219 218.789062 Z M 212.199219 218.789062 " fill-opacity="1" fill-rule="nonzero"/><g clip-path="url(#94ea91d940)"><path fill="#1649ff" d="M 273.625 167.789062 L 269.320312 167.789062 C 267.304688 167.789062 265.683594 166.222656 265.53125 164.148438 L 265.335938 161.359375 C 264.609375 161.109375 263.898438 160.8125 263.207031 160.476562 L 261.09375 162.3125 C 259.519531 163.675781 257.261719 163.632812 255.839844 162.210938 L 252.792969 159.164062 C 251.371094 157.742188 251.328125 155.484375 252.691406 153.910156 L 254.527344 151.796875 C 254.191406 151.105469 253.894531 150.394531 253.644531 149.667969 L 250.855469 149.472656 C 248.78125 149.324219 247.214844 147.699219 247.214844 145.683594 L 247.214844 141.378906 C 247.214844 139.363281 248.78125 137.738281 250.855469 137.589844 L 253.644531 137.394531 C 253.894531 136.667969 254.191406 135.957031 254.527344 135.265625 L 252.691406 133.152344 C 251.328125 131.578125 251.371094 129.320312 252.792969 127.898438 L 255.839844 124.851562 C 257.261719 123.429688 259.519531 123.386719 261.089844 124.75 L 263.203125 126.585938 C 263.894531 126.25 264.605469 125.953125 265.332031 125.707031 L 265.527344 122.914062 C 265.675781 120.835938 267.304688 119.273438 269.316406 119.273438 L 273.621094 119.273438 C 275.636719 119.273438 277.261719 120.839844 277.410156 122.914062 L 277.609375 125.707031 C 278.332031 125.953125 279.042969 126.25 279.734375 126.585938 L 281.847656 124.75 C 283.421875 123.386719 285.679688 123.429688 287.101562 124.851562 L 290.144531 127.898438 C 291.566406 129.320312 291.609375 131.578125 290.246094 133.148438 L 288.410156 135.261719 C 288.746094 135.953125 289.042969 136.664062 289.292969 137.390625 L 292.082031 137.585938 C 294.160156 137.734375 295.722656 139.363281 295.722656 141.375 L 295.722656 145.679688 C 295.722656 147.695312 294.160156 149.320312 292.082031 149.46875 L 289.292969 149.667969 C 289.042969 150.390625 288.746094 151.101562 288.410156 151.792969 L 290.246094 153.90625 C 291.613281 155.480469 291.566406 157.738281 290.144531 159.160156 L 287.101562 162.203125 C 285.675781 163.625 283.417969 163.671875 281.84375 162.304688 L 279.730469 160.46875 C 279.039062 160.804688 278.328125 161.101562 277.605469 161.351562 L 277.40625 164.140625 C 277.261719 166.222656 275.636719 167.789062 273.625 167.789062 Z M 269.71875 163.574219 L 273.222656 163.574219 L 273.503906 159.605469 C 273.570312 158.695312 274.207031 157.9375 275.089844 157.710938 C 276.441406 157.363281 277.734375 156.828125 278.9375 156.113281 C 279.722656 155.648438 280.710938 155.738281 281.398438 156.332031 L 284.40625 158.941406 L 286.886719 156.460938 L 284.277344 153.453125 C 283.683594 152.765625 283.59375 151.773438 284.058594 150.996094 C 284.777344 149.789062 285.308594 148.5 285.652344 147.144531 C 285.878906 146.261719 286.640625 145.625 287.550781 145.558594 L 291.519531 145.277344 L 291.519531 141.773438 L 287.550781 141.492188 C 286.640625 141.425781 285.882812 140.789062 285.652344 139.90625 C 285.308594 138.554688 284.773438 137.261719 284.058594 136.058594 C 283.59375 135.273438 283.683594 134.285156 284.277344 133.597656 L 286.886719 130.589844 L 284.40625 128.109375 L 281.398438 130.71875 C 280.710938 131.316406 279.71875 131.402344 278.9375 130.9375 C 277.734375 130.21875 276.445312 129.6875 275.089844 129.34375 C 274.207031 129.121094 273.570312 128.355469 273.503906 127.445312 L 273.222656 123.476562 L 269.71875 123.476562 L 269.4375 127.445312 C 269.371094 128.355469 268.734375 129.117188 267.851562 129.34375 C 266.5 129.6875 265.207031 130.222656 264.003906 130.9375 C 263.21875 131.402344 262.230469 131.316406 261.542969 130.71875 L 258.535156 128.109375 L 256.054688 130.589844 L 258.664062 133.597656 C 259.261719 134.285156 259.347656 135.277344 258.882812 136.058594 C 258.164062 137.257812 257.632812 138.554688 257.289062 139.90625 C 257.0625 140.789062 256.300781 141.425781 255.390625 141.492188 L 251.421875 141.773438 L 251.421875 145.277344 L 255.390625 145.558594 C 256.300781 145.625 257.0625 146.261719 257.289062 147.140625 C 257.632812 148.496094 258.167969 149.789062 258.882812 150.992188 C 259.347656 151.773438 259.261719 152.765625 258.664062 153.449219 L 256.054688 156.457031 L 258.535156 158.9375 L 261.542969 156.328125 C 262.230469 155.734375 263.21875 155.644531 264.003906 156.109375 C 265.207031 156.828125 266.5 157.363281 267.851562 157.707031 C 268.734375 157.929688 269.371094 158.695312 269.4375 159.601562 Z M 269.71875 163.574219 " fill-opacity="1" fill-rule="nonzero"/></g><path fill="#1649ff" d="M 271.472656 154.617188 C 265.359375 154.617188 260.386719 149.644531 260.386719 143.53125 C 260.386719 137.421875 265.359375 132.449219 271.472656 132.449219 C 277.582031 132.449219 282.554688 137.421875 282.554688 143.53125 C 282.554688 149.644531 277.585938 154.617188 271.472656 154.617188 Z M 271.472656 136.660156 C 267.683594 136.660156 264.601562 139.742188 264.601562 143.53125 C 264.601562 147.316406 267.683594 150.398438 271.472656 150.398438 C 275.257812 150.398438 278.339844 147.316406 278.339844 143.53125 C 278.339844 139.746094 275.257812 136.660156 271.472656 136.660156 Z M 271.472656 136.660156 " fill-opacity="1" fill-rule="nonzero"/></svg>