<svg xmlns="http://www.w3.org/2000/svg" xmlns:xlink="http://www.w3.org/1999/xlink" width="500" zoomAndPan="magnify" viewBox="0 0 375 374.999991" height="500" preserveAspectRatio="xMidYMid meet" version="1.0"><defs><clipPath id="c14437fa6b"><path d="M 114.648438 92.5 L 260.148438 92.5 L 260.148438 199.75 L 114.648438 199.75 Z M 114.648438 92.5 " clip-rule="nonzero"/></clipPath></defs><g clip-path="url(#c14437fa6b)"><path fill="#1649ff" d="M 139.507812 141.921875 C 138.289062 143.828125 136.34375 145.199219 133.675781 146.039062 C 136.34375 146.882812 138.289062 148.25 139.507812 150.160156 C 140.726562 152.066406 141.339844 154.964844 141.339844 158.855469 L 141.339844 177.160156 C 141.339844 179.90625 142.042969 182 143.453125 183.453125 C 144.867188 184.902344 146.941406 185.628906 149.6875 185.628906 L 151.746094 185.628906 L 151.746094 199.585938 L 145.113281 199.585938 C 138.019531 199.585938 132.644531 197.828125 128.984375 194.324219 C 125.324219 190.8125 123.492188 185.746094 123.492188 179.109375 L 123.492188 158.402344 C 123.492188 156.648438 123.054688 155.316406 122.175781 154.398438 C 121.300781 153.480469 120.0625 153.027344 118.457031 153.027344 L 114.683594 153.027344 L 114.683594 139.0625 L 118.457031 139.0625 C 120.0625 139.0625 121.300781 138.601562 122.175781 137.691406 C 123.054688 136.773438 123.492188 135.445312 123.492188 133.683594 L 123.492188 112.980469 C 123.492188 106.347656 125.324219 101.273438 128.984375 97.761719 C 132.644531 94.257812 138.019531 92.5 145.113281 92.5 L 151.746094 92.5 L 151.746094 106.460938 L 149.6875 106.460938 C 146.941406 106.460938 144.867188 107.1875 143.453125 108.632812 C 142.042969 110.082031 141.339844 112.179688 141.339844 114.929688 L 141.339844 133.230469 C 141.339844 137.117188 140.726562 140.015625 139.507812 141.921875 Z M 214.554688 153.015625 L 194.644531 153.015625 L 194.644531 172.460938 L 179.890625 172.460938 L 179.890625 153.015625 L 160.09375 153.015625 L 160.09375 139.0625 L 179.890625 139.0625 L 179.890625 119.613281 L 194.644531 119.613281 L 194.644531 139.0625 L 214.554688 139.0625 Z M 260.308594 139.0625 L 260.308594 153.019531 L 256.535156 153.019531 C 254.933594 153.019531 253.695312 153.480469 252.816406 154.390625 C 251.941406 155.308594 251.5 156.636719 251.5 158.394531 L 251.5 179.101562 C 251.5 185.734375 249.671875 190.808594 246.011719 194.316406 C 242.351562 197.824219 236.976562 199.582031 229.882812 199.582031 L 223.25 199.582031 L 223.25 185.621094 L 225.3125 185.621094 C 228.058594 185.621094 230.132812 184.894531 231.546875 183.445312 C 232.957031 182 233.660156 179.898438 233.660156 177.152344 L 233.660156 158.847656 C 233.660156 154.957031 234.269531 152.058594 235.492188 150.152344 C 236.707031 148.246094 238.65625 146.875 241.324219 146.035156 C 238.65625 145.195312 236.714844 143.824219 235.492188 141.917969 C 234.269531 140.007812 233.660156 137.113281 233.660156 133.21875 L 233.660156 114.921875 C 233.660156 112.175781 232.953125 110.082031 231.546875 108.628906 C 230.132812 107.179688 228.058594 106.453125 225.3125 106.453125 L 223.25 106.453125 L 223.25 92.5 L 229.882812 92.5 C 236.976562 92.5 242.351562 94.257812 246.011719 97.761719 C 249.671875 101.273438 251.5 106.339844 251.5 112.980469 L 251.5 133.683594 C 251.5 135.445312 251.941406 136.773438 252.816406 137.691406 C 253.695312 138.609375 254.933594 139.0625 256.535156 139.0625 Z M 260.308594 139.0625 " fill-opacity="1" fill-rule="nonzero"/></g></svg>